<svg id="Layer_1" enable-background="new 0 0 512 512" height="512" viewBox="0 0 512 512" width="512" xmlns="http://www.w3.org/2000/svg"><g><path d="m471.981 258.307c-.902-41.128-34.64-74.307-75.981-74.307-28.082 0-53.838 15.575-66.997 40.087-3.114.181-6.204.659-9.229 1.39-3.366-49.903-45.032-89.477-95.774-89.477-40.766 0-77.099 26.031-90.523 64.031-52.631-.815-95.347 42.667-93.414 95.412-24.521 12.085-40.063 36.824-40.063 64.557 0 39.701 32.299 72 72 72h220c35.29 0 64-28.71 64-64h100c30.879 0 56-25.122 56-56 0-25.184-16.46-46.759-40.019-53.693zm-247.981-106.307c43.784 0 80 35.483 80 80.181-12.211 7.817-20.953 20.815-23.331 35.532-5.13 2.05-9.975 5-13.986 8.349-13.141-9.116-29.721-13.635-46.87-11.571-9.8-31.495-36.513-56.198-69.89-62.756 12.147-29.689 41.411-49.735 74.077-49.735zm68 264h-220c-30.878 0-56-25.122-56-56 0-40.059 40.451-66.732 76.998-51.935 4.104 1.661 8.763-.327 10.417-4.414 1.658-4.095-.318-8.759-4.414-10.417-13.233-5.357-28.226-6.779-42.946-3.45 1.181-40.883 34.781-73.784 75.945-73.784 35.912 0 66.431 24.594 74.171 59.387.998 4.484 5.48 7.049 9.675 6.042 26.192-6.283 52.692 8.469 61.337 33.64 1.236 3.597 4.835 5.824 8.604 5.333 28.24-3.7 54.213 18.27 54.213 47.598 0 26.467-21.532 48-48 48zm164-64c-106.754 0-102.004.044-102.036-.079-7.554-29.158-34.561-48.815-63.965-47.89-2.858-6.328-6.825-12.317-11.146-17.179 3.004-2.22 7.069-4.303 11.375-5.508 3.306-.926 5.652-3.857 5.832-7.285 1.047-20.003 18.539-35.166 37.452-34.023 3.332.193 6.405-1.67 7.771-4.695 9.689-21.469 31.166-35.341 54.717-35.341 31.74 0 57.786 24.777 59.852 56.003-6.36.016-12.592 1.086-18.522 3.185-4.165 1.475-6.346 6.046-4.871 10.211 1.161 3.282 4.247 5.333 7.541 5.332 3.244 0 6.608-2.732 16-2.732 22.098 0 40 17.706 40 40 0 22.057-17.944 40.001-40 40.001z"/><path d="m224 120c4.418 0 8-3.582 8-8v-24c0-4.418-3.582-8-8-8s-8 3.582-8 8v24c0 4.418 3.582 8 8 8z"/><path d="m157.072 132.077c2.213 3.832 7.106 5.134 10.928 2.928 3.826-2.209 5.137-7.102 2.928-10.928l-12-20.785c-2.209-3.827-7.103-5.136-10.928-2.928-3.826 2.209-5.137 7.102-2.928 10.928z"/><path d="m95.292 166.928c22.906 13.225 21.932 13.073 24.777 13.073 8.172 0 11.065-10.855 4.007-14.93l-20.785-12c-3.826-2.209-8.719-.898-10.928 2.928-2.208 3.827-.897 8.72 2.929 10.929z"/><path d="m280 135.005c3.809 2.2 8.709.915 10.928-2.928l12-20.785c2.21-3.826.898-8.719-2.928-10.928-3.826-2.21-8.72-.899-10.928 2.928l-12 20.785c-2.21 3.826-.898 8.719 2.928 10.928z"/><path d="m327.931 180.001c2.846 0 1.877.148 24.777-13.073 3.826-2.209 5.138-7.102 2.929-10.928-2.21-3.825-7.101-5.139-10.929-2.928l-20.785 12c-7.071 4.082-4.152 14.929 4.008 14.929z"/></g></svg>