<?xml version="1.0" encoding="iso-8859-1"?>
<!-- Generator: Adobe Illustrator 19.0.0, SVG Export Plug-In . SVG Version: 6.00 Build 0)  -->
<svg version="1.1" id="Layer_1" xmlns="http://www.w3.org/2000/svg" xmlns:xlink="http://www.w3.org/1999/xlink" x="0px" y="0px"
	 viewBox="0 0 512 512" style="enable-background:new 0 0 512 512;" xml:space="preserve">
<g>
	<g>
		<g>
			<path d="M42.667,187.733h273.067c4.719,0,8.533-3.823,8.533-8.533s-3.814-8.533-8.533-8.533H42.667
				c-4.719,0-8.533,3.823-8.533,8.533S37.948,187.733,42.667,187.733z"/>
			<path d="M247.467,273.067H59.733c-4.719,0-8.533,3.823-8.533,8.533c0,4.71,3.814,8.533,8.533,8.533h187.733
				c4.719,0,8.533-3.823,8.533-8.533C256,276.89,252.186,273.067,247.467,273.067z"/>
			<path d="M119.467,230.4c0-4.71-3.814-8.533-8.533-8.533H8.533C3.814,221.867,0,225.69,0,230.4c0,4.71,3.814,8.533,8.533,8.533
				h102.4C115.652,238.933,119.467,235.11,119.467,230.4z"/>
			<path d="M93.867,136.533h119.467c4.719,0,8.533-3.823,8.533-8.533c0-4.71-3.814-8.533-8.533-8.533H93.867
				c-4.719,0-8.533,3.823-8.533,8.533C85.333,132.71,89.148,136.533,93.867,136.533z"/>
			<path d="M238.933,128c0,4.71,3.814,8.533,8.533,8.533H435.2c4.719,0,8.533-3.823,8.533-8.533c0-4.71-3.814-8.533-8.533-8.533
				H247.467C242.748,119.467,238.933,123.29,238.933,128z"/>
			<path d="M349.867,170.667c-4.719,0-8.533,3.823-8.533,8.533s3.814,8.533,8.533,8.533h68.267c4.719,0,8.533-3.823,8.533-8.533
				s-3.814-8.533-8.533-8.533H349.867z"/>
			<path d="M179.2,85.333h221.867c4.719,0,8.533-3.823,8.533-8.533s-3.814-8.533-8.533-8.533H179.2
				c-4.719,0-8.533,3.823-8.533,8.533S174.481,85.333,179.2,85.333z"/>
			<path d="M469.333,273.067H281.6c-4.719,0-8.533,3.823-8.533,8.533c0,4.71,3.814,8.533,8.533,8.533h187.733
				c4.719,0,8.533-3.823,8.533-8.533C477.867,276.89,474.052,273.067,469.333,273.067z"/>
			<path d="M418.133,375.467H247.467c-4.719,0-8.533,3.823-8.533,8.533s3.814,8.533,8.533,8.533h170.667
				c4.719,0,8.533-3.823,8.533-8.533S422.852,375.467,418.133,375.467z"/>
			<path d="M366.933,426.667H145.067c-4.719,0-8.533,3.823-8.533,8.533s3.814,8.533,8.533,8.533h221.867
				c4.719,0,8.533-3.823,8.533-8.533S371.652,426.667,366.933,426.667z"/>
			<path d="M503.467,221.867h-358.4c-4.719,0-8.533,3.823-8.533,8.533c0,4.71,3.814,8.533,8.533,8.533h358.4
				c4.719,0,8.533-3.823,8.533-8.533C512,225.69,508.186,221.867,503.467,221.867z"/>
			<path d="M93.867,324.267c-4.719,0-8.533,3.823-8.533,8.533s3.814,8.533,8.533,8.533h68.267c4.719,0,8.533-3.823,8.533-8.533
				s-3.814-8.533-8.533-8.533H93.867z"/>
			<path d="M221.867,384c0-4.71-3.814-8.533-8.533-8.533h-153.6c-4.719,0-8.533,3.823-8.533,8.533s3.814,8.533,8.533,8.533h153.6
				C218.052,392.533,221.867,388.71,221.867,384z"/>
			<path d="M187.733,332.8c0,4.71,3.814,8.533,8.533,8.533H384c4.719,0,8.533-3.823,8.533-8.533s-3.814-8.533-8.533-8.533H196.267
				C191.548,324.267,187.733,328.09,187.733,332.8z"/>
		</g>
	</g>
</g>
<g>
</g>
<g>
</g>
<g>
</g>
<g>
</g>
<g>
</g>
<g>
</g>
<g>
</g>
<g>
</g>
<g>
</g>
<g>
</g>
<g>
</g>
<g>
</g>
<g>
</g>
<g>
</g>
<g>
</g>
</svg>
