<?xml version="1.0"?>
<svg xmlns="http://www.w3.org/2000/svg" viewBox="0 0 512 512" width="512" height="512"><g id="outline"><path d="M148,240H364a68,68,0,0,0,15.4-134.237A55.93,55.93,0,0,0,328,72q-1.821,0-3.642.118a80,80,0,0,0-152.729.078,47.863,47.863,0,0,0-41.676,34.24A68,68,0,0,0,148,240Zm-9.882-119.05a8,8,0,0,0,6.37-6.484A31.911,31.911,0,0,1,176,88c.488,0,.973.017,1.455.038a7.994,7.994,0,0,0,8.144-6.226,64.27,64.27,0,0,1,22.2-35.6A63.231,63.231,0,0,1,248,32a64.271,64.271,0,0,1,62.59,50.622A8,8,0,0,0,320,88.8a40.464,40.464,0,0,1,8-.8,39.954,39.954,0,0,1,37.928,27.3,8,8,0,0,0,6.327,5.361A52,52,0,0,1,364,224H148a52,52,0,0,1-9.882-103.05Z"/><path d="M136,192h24a8,8,0,0,0,0-16H136a8,8,0,0,0,0,16Z"/><path d="M192,192h56a8,8,0,0,0,0-16H192a8,8,0,0,0,0,16Z"/><path d="M298.7,400.585l7.728,2.07a8,8,0,1,0,4.141-15.455l-3.2-.857.857-3.2A8,8,0,0,0,292.77,379l-2.071,7.727-15.1,8.72L264,388.754v-17.44l5.657-5.657a8,8,0,0,0-11.314-11.314L256,356.687l-2.343-2.344a8,8,0,0,0-11.314,11.314L248,371.314v17.44l-11.6,6.695-15.1-8.72L219.23,379a8,8,0,0,0-15.455,4.141l.857,3.2-3.2.857a8,8,0,1,0,4.141,15.455l7.728-2.07,15.1,8.72V422.7l-15.1,8.72-7.728-2.07a8,8,0,0,0-4.141,15.455l3.2.857-.857,3.2A8,8,0,1,0,219.23,453l2.071-7.727,15.1-8.72,11.6,6.695v17.44l-5.657,5.657a8,8,0,0,0,11.314,11.314L256,475.313l2.343,2.344a8,8,0,0,0,11.314-11.314L264,460.686v-17.44l11.6-6.695,15.1,8.72L292.77,453a8,8,0,1,0,15.455-4.141l-.857-3.2,3.2-.857a8,8,0,0,0-4.141-15.455l-7.728,2.07-15.1-8.72v-13.39Zm-31.1,22.109-11.6,6.7-11.6-6.7V409.306l11.6-6.7,11.6,6.7Z"/><path d="M113.159,373.657a8,8,0,0,0,0-11.314l-5.657-5.657v-17.44l11.6-6.694,15.1,8.719,2.07,7.727a8,8,0,0,0,15.456-4.141l-.858-3.2,3.2-.857a8,8,0,1,0-4.14-15.455l-7.728,2.07-15.1-8.72v-13.39l15.1-8.72,7.728,2.07a8,8,0,1,0,4.14-15.455l-3.2-.857.858-3.2A8,8,0,0,0,136.272,275l-2.07,7.727-15.1,8.719-11.6-6.694v-17.44l5.657-5.657a8,8,0,0,0-11.313-11.314L99.5,252.687l-2.343-2.344a8,8,0,0,0-11.313,11.314l5.656,5.657v17.44l-11.6,6.695-15.1-8.72L62.733,275a8,8,0,0,0-15.455,4.141l.857,3.2-3.2.857a8,8,0,1,0,4.141,15.455l7.728-2.07,15.1,8.72V318.7l-15.1,8.72-7.728-2.07A8,8,0,1,0,44.935,340.8l3.2.857-.857,3.2A8,8,0,1,0,62.733,349l2.07-7.727,15.1-8.72,11.6,6.695v17.44l-5.656,5.657a8,8,0,1,0,11.313,11.314l2.343-2.344,2.344,2.344a8,8,0,0,0,11.313,0ZM99.5,325.39l-11.595-6.7V305.306l11.6-6.7,11.6,6.7v13.388Z"/><path d="M470.924,429.345l-7.728,2.07-15.1-8.72v-13.39l15.1-8.72,7.728,2.07a8,8,0,1,0,4.141-15.455l-3.2-.857.857-3.2A8,8,0,0,0,457.267,379l-2.07,7.727-15.1,8.72-11.6-6.695v-17.44l5.656-5.657a8,8,0,0,0-11.313-11.314l-2.343,2.344-2.344-2.344a8,8,0,0,0-11.313,11.314l5.657,5.657v17.44l-11.6,6.694-15.1-8.719L383.728,379a8,8,0,0,0-15.456,4.141l.858,3.2-3.2.857a8,8,0,1,0,4.14,15.455l7.728-2.07,15.1,8.72V422.7l-15.1,8.72-7.728-2.07a8,8,0,1,0-4.14,15.455l3.2.857-.858,3.2A8,8,0,1,0,383.728,453l2.07-7.727,15.1-8.719,11.6,6.694v17.44l-5.657,5.657a8,8,0,0,0,11.313,11.314l2.344-2.344,2.343,2.344a8,8,0,1,0,11.313-11.314l-5.656-5.657v-17.44l11.6-6.695,15.1,8.72,2.07,7.727a8,8,0,0,0,15.455-4.141l-.857-3.2,3.2-.857a8,8,0,0,0-4.141-15.455Zm-38.831-6.651-11.6,6.7-11.6-6.7V409.306l11.6-6.7,11.6,6.7Z"/><path d="M232,280a24,24,0,1,0,24-24A24.027,24.027,0,0,0,232,280Zm32,0a8,8,0,1,1-8-8A8.009,8.009,0,0,1,264,280Z"/><path d="M56,384a24,24,0,1,0,24,24A24.027,24.027,0,0,0,56,384Zm0,32a8,8,0,1,1,8-8A8.009,8.009,0,0,1,56,416Z"/><path d="M408,280a24,24,0,1,0,24-24A24.027,24.027,0,0,0,408,280Zm32,0a8,8,0,1,1-8-8A8.009,8.009,0,0,1,440,280Z"/><path d="M136,416a32,32,0,1,0,32,32A32.036,32.036,0,0,0,136,416Zm0,48a16,16,0,1,1,16-16A16.019,16.019,0,0,1,136,464Z"/><path d="M384,328a32,32,0,1,0-32,32A32.036,32.036,0,0,0,384,328Zm-32,16a16,16,0,1,1,16-16A16.019,16.019,0,0,1,352,344Z"/></g></svg>
