<svg height="511pt" viewBox="0 1 511 511.999" width="511pt" xmlns="http://www.w3.org/2000/svg"><path d="m427.570312 140.765625c1.949219-8.417969 2.929688-17.027344 2.929688-25.765625 0-63.410156-51.589844-115-115-115-22.199219 0-43.742188 6.355469-62.304688 18.386719-13.226562 8.570312-24.492187 19.703125-33.183593 32.695312-.171875-.09375-.34375-.171875-.515625-.257812-13.160156-6.910157-28.128906-10.824219-43.996094-10.824219-52.382812 0-95 42.617188-95 95 0 2.054688.066406 4.105469.199219 6.152344-45.378907 7.128906-80.199219 46.5-80.199219 93.847656 0 52.382812 42.617188 95 95 95h36.300781l-14.410156 72.058594c-1.296875 6.480468 1.804687 13.046875 7.632813 16.167968 2.230468 1.195313 4.660156 1.773438 7.070312 1.773438 3.886719 0 7.730469-1.507812 10.613281-4.394531l85.605469-85.605469h49.695312l-41.570312 69.28125c-2.78125 4.636719-2.855469 10.40625-.191406 15.109375 2.664062 4.703125 7.648437 7.609375 13.054687 7.609375h22.902344l-14.414063 72.058594c-1.292968 6.480468 1.804688 13.046875 7.632813 16.167968 2.230469 1.191407 4.660156 1.773438 7.074219 1.773438 3.886718 0 7.726562-1.511719 10.609375-4.394531l122-122c4.289062-4.289063 5.574219-10.742188 3.253906-16.347657-2.324219-5.605468-7.792969-9.261718-13.859375-9.261718h-31.972656l20-30h32.972656c52.382812 0 95-42.613282 95-95 0-48.289063-36.226562-88.28125-82.929688-94.230469zm-271.046874 218.597656 8.285156-41.421875c.882812-4.40625-.257813-8.976562-3.109375-12.453125-2.847657-3.472656-7.105469-5.488281-11.597657-5.488281h-14.710937l37.203125-62h33.476562l-24.453124 36.679688c-3.066407 4.601562-3.351563 10.519531-.742188 15.398437 2.609375 4.875 7.691406 7.921875 13.222656 7.921875h23.789063zm140.402343 92 8.28125-41.421875c.882813-4.40625-.257812-8.976562-3.105469-12.453125-2.851562-3.472656-7.109374-5.488281-11.601562-5.488281h-14.707031l37.199219-62h33.476562l-24.453125 36.679688c-3.066406 4.601562-3.351563 10.519531-.742187 15.398437 2.609374 4.875 7.691406 7.921875 13.226562 7.921875h23.785156zm118.574219-151.363281h-157.1875l6.394531-6.394531c4.289063-4.289063 5.574219-10.742188 3.25-16.347657-2.320312-5.605468-7.789062-9.257812-13.855469-9.257812h-31.972656l24.453125-36.679688c3.066407-4.605468 3.351563-10.523437.742188-15.398437-2.609375-4.878906-7.691407-7.921875-13.222657-7.921875h-70c-5.269531 0-10.152343 2.765625-12.863281 7.28125l-50.832031 84.71875h-4.90625c-35.839844 0-65-29.160156-65-65 0-33.109375 24.886719-60.496094 56.886719-64.484375 1.660156 4.125 3.601562 8.140625 5.835937 12.003906 2.78125 4.804688 7.820313 7.488281 13 7.488281 2.550782 0 5.132813-.652343 7.496094-2.019531 7.171875-4.148437 9.621094-13.324219 5.472656-20.496093-5.6875-9.828126-8.691406-21.0625-8.691406-32.492188 0-35.839844 29.160156-65 65-65s65 29.160156 65 65c0 8.285156 6.714844 15 15 15s15-6.714844 15-15c0-25.492188-10.097656-48.671875-26.496094-65.75 15.496094-24.136719 42.507813-39.25 71.496094-39.25 46.867188 0 85 38.132812 85 85 0 11.878906-2.460938 23.449219-7.320312 34.394531-2.171876 4.902344-1.566407 10.589844 1.589843 14.921875 3.15625 4.332032 8.390625 6.648438 13.71875 6.078125 2.472657-.265625 4.769531-.394531 7.011719-.394531 35.839844 0 65 29.160156 65 65s-29.160156 65-65 65zm0 0"/></svg>